<svg width="36" height="36" viewBox="0 0 36 36" fill="none" xmlns="http://www.w3.org/2000/svg">
<path d="M27 9C26.085 9 25.245 8.475 24.825 7.665L23.745 5.49C23.055 4.125 21.255 3 19.725 3H16.29C14.745 3 12.945 4.125 12.255 5.49L11.175 7.665C10.755 8.475 9.91501 9 9.00001 9C5.74501 9 3.16501 11.745 3.37501 14.985L4.15501 27.375C4.33501 30.465 6.00001 33 10.14 33H25.86C30 33 31.65 30.465 31.845 27.375L32.625 14.985C32.835 11.745 30.255 9 27 9ZM15.75 10.875H20.25C20.865 10.875 21.375 11.385 21.375 12C21.375 12.615 20.865 13.125 20.25 13.125H15.75C15.135 13.125 14.625 12.615 14.625 12C14.625 11.385 15.135 10.875 15.75 10.875ZM18 27.18C15.21 27.18 12.93 24.915 12.93 22.11C12.93 19.305 15.195 17.04 18 17.04C20.805 17.04 23.07 19.305 23.07 22.11C23.07 24.915 20.79 27.18 18 27.18Z" fill="white"/>
</svg>
