<svg width="25" height="25" viewBox="0 0 25 25" fill="none" xmlns="http://www.w3.org/2000/svg">
<g clip-path="url(#clip0_343_3151)">
<g clip-path="url(#clip1_343_3151)">
<path d="M24.245 12.77C24.245 11.98 24.175 11.23 24.055 10.5H12.755V15.01H19.225C18.935 16.49 18.085 17.74 16.825 18.59V21.59H20.685C22.945 19.5 24.245 16.42 24.245 12.77Z" fill="#4285F4"/>
<path d="M12.755 24.5C15.995 24.5 18.705 23.42 20.685 21.59L16.825 18.59C15.745 19.31 14.375 19.75 12.755 19.75C9.625 19.75 6.975 17.64 6.025 14.79H2.045V17.88C4.015 21.8 8.065 24.5 12.755 24.5Z" fill="#34A853"/>
<path d="M6.02501 14.79C5.77501 14.07 5.645 13.3 5.645 12.5C5.645 11.7 5.78501 10.93 6.02501 10.21V7.12H2.045C1.225 8.74 0.755005 10.56 0.755005 12.5C0.755005 14.44 1.225 16.26 2.045 17.88L6.02501 14.79Z" fill="#FBBC05"/>
<path d="M12.755 5.25C14.525 5.25 16.105 5.86 17.355 7.05L20.775 3.63C18.705 1.69 15.995 0.5 12.755 0.5C8.065 0.5 4.015 3.2 2.045 7.12L6.025 10.21C6.975 7.36 9.625 5.25 12.755 5.25Z" fill="#EA4335"/>
</g>
</g>
<defs>
<clipPath id="clip0_343_3151">
<rect width="24" height="24" fill="white" transform="translate(0.5 0.5)"/>
</clipPath>
<clipPath id="clip1_343_3151">
<rect width="24" height="24" fill="white" transform="translate(0.5 0.5)"/>
</clipPath>
</defs>
</svg>
