<svg width="40" height="40" viewBox="0 0 40 40" fill="none" xmlns="http://www.w3.org/2000/svg">
<path d="M19.9997 3.3335C10.8163 3.3335 3.33301 10.8168 3.33301 20.0002C3.33301 29.1835 10.8163 36.6668 19.9997 36.6668C29.183 36.6668 36.6663 29.1835 36.6663 20.0002C36.6663 10.8168 29.183 3.3335 19.9997 3.3335ZM22.983 25.0002C23.4663 25.4835 23.4663 26.2835 22.983 26.7668C22.733 27.0168 22.4163 27.1335 22.0997 27.1335C21.783 27.1335 21.4663 27.0168 21.2163 26.7668L15.333 20.8835C14.8497 20.4002 14.8497 19.6002 15.333 19.1168L21.2163 13.2335C21.6997 12.7502 22.4997 12.7502 22.983 13.2335C23.4663 13.7168 23.4663 14.5168 22.983 15.0002L17.983 20.0002L22.983 25.0002Z" fill="white" fill-opacity="0.2"/>
</svg>
