<svg width="40" height="40" viewBox="0 0 40 40" fill="none" xmlns="http://www.w3.org/2000/svg">
<path d="M19.9997 3.3335C10.8163 3.3335 3.33301 10.8168 3.33301 20.0002C3.33301 29.1835 10.8163 36.6668 19.9997 36.6668C29.183 36.6668 36.6663 29.1835 36.6663 20.0002C36.6663 10.8168 29.183 3.3335 19.9997 3.3335ZM24.6497 20.8835L18.7663 26.7668C18.5163 27.0168 18.1997 27.1335 17.883 27.1335C17.5663 27.1335 17.2497 27.0168 16.9997 26.7668C16.5163 26.2835 16.5163 25.4835 16.9997 25.0002L21.9997 20.0002L16.9997 15.0002C16.5163 14.5168 16.5163 13.7168 16.9997 13.2335C17.483 12.7502 18.283 12.7502 18.7663 13.2335L24.6497 19.1168C25.1497 19.6002 25.1497 20.4002 24.6497 20.8835Z" fill="white" fill-opacity="0.5"/>
</svg>
