<svg width="32" height="32" viewBox="0 0 32 32" fill="none" xmlns="http://www.w3.org/2000/svg">
<path d="M16.0003 2.6665C8.65366 2.6665 2.66699 8.65317 2.66699 15.9998C2.66699 23.3465 8.65366 29.3332 16.0003 29.3332C23.347 29.3332 29.3337 23.3465 29.3337 15.9998C29.3337 8.65317 23.347 2.6665 16.0003 2.6665ZM20.4803 19.0665C20.867 19.4532 20.867 20.0932 20.4803 20.4798C20.2803 20.6798 20.027 20.7732 19.7737 20.7732C19.5203 20.7732 19.267 20.6798 19.067 20.4798L16.0003 17.4132L12.9337 20.4798C12.7337 20.6798 12.4803 20.7732 12.227 20.7732C11.9737 20.7732 11.7203 20.6798 11.5203 20.4798C11.1337 20.0932 11.1337 19.4532 11.5203 19.0665L14.587 15.9998L11.5203 12.9332C11.1337 12.5465 11.1337 11.9065 11.5203 11.5198C11.907 11.1332 12.547 11.1332 12.9337 11.5198L16.0003 14.5865L19.067 11.5198C19.4537 11.1332 20.0937 11.1332 20.4803 11.5198C20.867 11.9065 20.867 12.5465 20.4803 12.9332L17.4137 15.9998L20.4803 19.0665Z" fill="white"/>
</svg>
