<svg width="100" height="32" viewBox="0 0 100 32" fill="none" xmlns="http://www.w3.org/2000/svg">
<path d="M21.92 4.1333C19.5066 4.1333 17.3466 5.30663 16 7.10663C14.6533 5.30663 12.4933 4.1333 10.08 4.1333C5.98663 4.1333 2.66663 7.46663 2.66663 11.5866C2.66663 13.1733 2.91996 14.64 3.35996 16C5.46663 22.6666 11.96 26.6533 15.1733 27.7466C15.6266 27.9066 16.3733 27.9066 16.8266 27.7466C20.04 26.6533 26.5333 22.6666 28.64 16C29.08 14.64 29.3333 13.1733 29.3333 11.5866C29.3333 7.46663 26.0133 4.1333 21.92 4.1333Z" fill="white"/>
<path d="M55.232 22.648C55.568 22.648 55.848 22.76 56.072 22.984C56.312 23.208 56.432 23.488 56.432 23.824C56.432 24.16 56.312 24.44 56.072 24.664C55.848 24.888 55.568 25 55.232 25H47.168C46.816 25 46.52 24.888 46.28 24.664C46.056 24.424 45.944 24.128 45.944 23.776V9.424C45.944 9.072 46.064 8.784 46.304 8.56C46.544 8.32 46.856 8.2 47.24 8.2C47.56 8.2 47.84 8.32 48.08 8.56C48.336 8.784 48.464 9.072 48.464 9.424V23.056L47.96 22.648H55.232ZM71.0182 18.688C71.0182 19.968 70.7382 21.104 70.1782 22.096C69.6182 23.072 68.8582 23.84 67.8982 24.4C66.9382 24.96 65.8582 25.24 64.6582 25.24C63.4582 25.24 62.3782 24.96 61.4182 24.4C60.4582 23.84 59.6902 23.072 59.1142 22.096C58.5542 21.104 58.2742 19.968 58.2742 18.688C58.2742 17.392 58.5542 16.256 59.1142 15.28C59.6902 14.288 60.4582 13.512 61.4182 12.952C62.3782 12.376 63.4582 12.088 64.6582 12.088C65.8582 12.088 66.9382 12.376 67.8982 12.952C68.8582 13.512 69.6182 14.288 70.1782 15.28C70.7382 16.256 71.0182 17.392 71.0182 18.688ZM68.6182 18.688C68.6182 17.808 68.4422 17.048 68.0902 16.408C67.7382 15.752 67.2582 15.24 66.6502 14.872C66.0582 14.488 65.3942 14.296 64.6582 14.296C63.9222 14.296 63.2502 14.488 62.6422 14.872C62.0342 15.24 61.5542 15.752 61.2022 16.408C60.8502 17.048 60.6742 17.808 60.6742 18.688C60.6742 19.536 60.8502 20.288 61.2022 20.944C61.5542 21.6 62.0342 22.112 62.6422 22.48C63.2502 22.848 63.9222 23.032 64.6582 23.032C65.3942 23.032 66.0582 22.848 66.6502 22.48C67.2582 22.112 67.7382 21.6 68.0902 20.944C68.4422 20.288 68.6182 19.536 68.6182 18.688ZM73.9055 12.256C74.1455 12.256 74.3695 12.32 74.5775 12.448C74.8015 12.576 74.9615 12.768 75.0575 13.024L78.8255 21.736L78.3695 21.952L82.1855 13.048C82.4095 12.52 82.7695 12.264 83.2655 12.28C83.5855 12.28 83.8495 12.384 84.0575 12.592C84.2815 12.784 84.3935 13.04 84.3935 13.36C84.3935 13.456 84.3775 13.56 84.3455 13.672C84.3135 13.768 84.2735 13.864 84.2255 13.96L79.6655 24.232C79.4575 24.712 79.1135 24.968 78.6335 25C78.3935 25.032 78.1535 24.984 77.9135 24.856C77.6895 24.712 77.5135 24.504 77.3855 24.232L72.8495 13.96C72.8175 13.896 72.7855 13.816 72.7535 13.72C72.7215 13.608 72.7055 13.48 72.7055 13.336C72.7055 13.096 72.8095 12.856 73.0175 12.616C73.2415 12.376 73.5375 12.256 73.9055 12.256ZM92.5991 25.24C91.2711 25.24 90.1191 24.968 89.1431 24.424C88.1671 23.864 87.4071 23.104 86.8631 22.144C86.3351 21.168 86.0711 20.056 86.0711 18.808C86.0711 17.4 86.3511 16.2 86.9111 15.208C87.4871 14.2 88.2311 13.432 89.1431 12.904C90.0551 12.36 91.0231 12.088 92.0471 12.088C92.8311 12.088 93.5751 12.248 94.2791 12.568C94.9831 12.872 95.6071 13.304 96.1511 13.864C96.7111 14.408 97.1511 15.056 97.4711 15.808C97.7911 16.544 97.9591 17.352 97.9751 18.232C97.9591 18.552 97.8311 18.816 97.5911 19.024C97.3511 19.232 97.0711 19.336 96.7511 19.336H87.4151L86.8391 17.296H95.8631L95.4071 17.728V17.128C95.3751 16.568 95.1911 16.08 94.8551 15.664C94.5191 15.232 94.1031 14.904 93.6071 14.68C93.1111 14.44 92.5911 14.32 92.0471 14.32C91.5671 14.32 91.1031 14.4 90.6551 14.56C90.2231 14.704 89.8311 14.944 89.4791 15.28C89.1431 15.616 88.8711 16.064 88.6631 16.624C88.4711 17.168 88.3751 17.848 88.3751 18.664C88.3751 19.544 88.5591 20.312 88.9271 20.968C89.2951 21.624 89.7911 22.136 90.4151 22.504C91.0391 22.856 91.7271 23.032 92.4791 23.032C93.0711 23.032 93.5591 22.976 93.9431 22.864C94.3271 22.736 94.6471 22.584 94.9031 22.408C95.1591 22.232 95.3831 22.064 95.5751 21.904C95.8151 21.76 96.0551 21.688 96.2951 21.688C96.5831 21.688 96.8231 21.792 97.0151 22C97.2071 22.192 97.3031 22.424 97.3031 22.696C97.3031 23.048 97.1271 23.368 96.7751 23.656C96.3431 24.072 95.7431 24.44 94.9751 24.76C94.2231 25.08 93.4311 25.24 92.5991 25.24Z" fill="white"/>
</svg>
